{"asset":{"version":"2.0","generator":"Blockbench 5.0.7 glTF exporter"},"scenes":[{"nodes":[19,21,23,25,27],"name":"blockbench_export"}],"scene":0,"nodes":[{"translation":[0,0,0.625],"name":"mesh","mesh":0},{"rotation":[-0.02617694830787315,0,0,0.9996573249755573],"translation":[0,0.121875,0.025],"name":"mesh","mesh":1},{"rotation":[-0.02181488503456112,0,0,0.9997620270799091],"translation":[0,0.32500000000000007,0.012500000000000011],"name":"mesh","mesh":2},{"name":"mesh","mesh":3},{"rotation":[0.7071067811865475,0,0,0.7071067811865476],"translation":[0,0,-0.1875],"name":"cylinder","mesh":4},{"translation":[-0.16875,0.16875,-0.6875],"name":"Escapamento","children":[4]},{"rotation":[0.7071067811865475,0,0,0.7071067811865476],"translation":[0.196875,0.26875,0.703125],"name":"circle","mesh":5},{"name":"Farol_Esq_frente","children":[6]},{"rotation":[0.7071067811865475,0,0,0.7071067811865476],"translation":[0.196875,0.26875,0.7031250000000001],"name":"circle","mesh":6},{"translation":[0,0,-1.35],"name":"Farol_Esq_fundo","children":[8]},{"rotation":[0.7071067811865475,0,0,0.7071067811865476],"translation":[-0.203125,0.26875,0.703125],"name":"circle","mesh":7},{"name":"Farol_Dir_frente","children":[10]},{"rotation":[0.7071067811865475,0,0,0.7071067811865476],"translation":[-0.203125,0.26875,0.7031250000000001],"name":"circle","mesh":8},{"translation":[0,0,-1.35],"name":"Farol_Dir_fundo","children":[12]},{"translation":[0,-0.025,-0.59375],"name":"Placa_fundo","mesh":9},{"name":"Placa_fundo","children":[14]},{"translation":[0,-0.04375,0.640625],"name":"Placa_frente","mesh":10},{"name":"Placa_frente","children":[16]},{"name":"Chassi","children":[0,1,2,3,5,7,9,11,13,15,17]},{"name":"Carro_Principal","children":[18]},{"rotation":[0.5,-0.4999999999999999,0.5,0.5000000000000001],"name":"cylinder","mesh":11},{"translation":[-0.246875,0.15625,-0.4375],"name":"Roda_Frente_Direita","children":[20]},{"rotation":[0.5,-0.4999999999999999,0.5,0.5000000000000001],"name":"cylinder","mesh":12},{"translation":[-0.246875,0.15625,0.4375],"name":"Roda_Fundo_Direita","children":[22]},{"rotation":[0.5,-0.4999999999999999,0.5,0.5000000000000001],"name":"cylinder","mesh":13},{"translation":[0.240625,0.15625,0.4375],"name":"Roda_Frente_Esquerda","children":[24]},{"rotation":[0.5,-0.4999999999999999,0.5,0.5000000000000001],"name":"cylinder","mesh":14},{"translation":[0.240625,0.15625,-0.4375],"name":"Roda_Fundo_Esquerda","children":[26]}],"bufferViews":[{"buffer":0,"byteOffset":0,"byteLength":288,"target":34962,"byteStride":12},{"buffer":0,"byteOffset":288,"byteLength":288,"target":34962,"byteStride":12},{"buffer":0,"byteOffset":576,"byteLength":192,"target":34962,"byteStride":8},{"buffer":0,"byteOffset":768,"byteLength":36,"target":34963},{"buffer":0,"byteOffset":804,"byteLength":12,"target":34963},{"buffer":0,"byteOffset":816,"byteLength":12,"target":34963},{"buffer":0,"byteOffset":828,"byteLength":12,"target":34963},{"buffer":0,"byteOffset":840,"byteLength":288,"target":34962,"byteStride":12},{"buffer":0,"byteOffset":1128,"byteLength":288,"target":34962,"byteStride":12},{"buffer":0,"byteOffset":1416,"byteLength":192,"target":34962,"byteStride":8},{"buffer":0,"byteOffset":1608,"byteLength":24,"target":34963},{"buffer":0,"byteOffset":1632,"byteLength":12,"target":34963},{"buffer":0,"byteOffset":1644,"byteLength":12,"target":34963},{"buffer":0,"byteOffset":1656,"byteLength":24,"target":34963},{"buffer":0,"byteOffset":1680,"byteLength":288,"target":34962,"byteStride":12},{"buffer":0,"byteOffset":1968,"byteLength":288,"target":34962,"byteStride":12},{"buffer":0,"byteOffset":2256,"byteLength":192,"target":34962,"byteStride":8},{"buffer":0,"byteOffset":2448,"byteLength":72,"target":34963},{"buffer":0,"byteOffset":2520,"byteLength":288,"target":34962,"byteStride":12},{"buffer":0,"byteOffset":2808,"byteLength":288,"target":34962,"byteStride":12},{"buffer":0,"byteOffset":3096,"byteLength":192,"target":34962,"byteStride":8},{"buffer":0,"byteOffset":3288,"byteLength":24,"target":34963},{"buffer":0,"byteOffset":3312,"byteLength":24,"target":34963},{"buffer":0,"byteOffset":3336,"byteLength":24,"target":34963},{"buffer":0,"byteOffset":3360,"byteLength":1440,"target":34962,"byteStride":12},{"buffer":0,"byteOffset":4800,"byteLength":1440,"target":34962,"byteStride":12},{"buffer":0,"byteOffset":6240,"byteLength":960,"target":34962,"byteStride":8},{"buffer":0,"byteOffset":7200,"byteLength":288,"target":34963},{"buffer":0,"byteOffset":7488,"byteLength":432,"target":34962,"byteStride":12},{"buffer":0,"byteOffset":7920,"byteLength":432,"target":34962,"byteStride":12},{"buffer":0,"byteOffset":8352,"byteLength":288,"target":34962,"byteStride":8},{"buffer":0,"byteOffset":8640,"byteLength":72,"target":34963},{"buffer":0,"byteOffset":8712,"byteLength":432,"target":34962,"byteStride":12},{"buffer":0,"byteOffset":9144,"byteLength":432,"target":34962,"byteStride":12},{"buffer":0,"byteOffset":9576,"byteLength":288,"target":34962,"byteStride":8},{"buffer":0,"byteOffset":9864,"byteLength":72,"target":34963},{"buffer":0,"byteOffset":9936,"byteLength":432,"target":34962,"byteStride":12},{"buffer":0,"byteOffset":10368,"byteLength":432,"target":34962,"byteStride":12},{"buffer":0,"byteOffset":10800,"byteLength":288,"target":34962,"byteStride":8},{"buffer":0,"byteOffset":11088,"byteLength":72,"target":34963},{"buffer":0,"byteOffset":11160,"byteLength":432,"target":34962,"byteStride":12},{"buffer":0,"byteOffset":11592,"byteLength":432,"target":34962,"byteStride":12},{"buffer":0,"byteOffset":12024,"byteLength":288,"target":34962,"byteStride":8},{"buffer":0,"byteOffset":12312,"byteLength":72,"target":34963},{"buffer":0,"byteOffset":12384,"byteLength":288,"target":34962,"byteStride":12},{"buffer":0,"byteOffset":12672,"byteLength":288,"target":34962,"byteStride":12},{"buffer":0,"byteOffset":12960,"byteLength":192,"target":34962,"byteStride":8},{"buffer":0,"byteOffset":13152,"byteLength":72,"target":34963},{"buffer":0,"byteOffset":13224,"byteLength":288,"target":34962,"byteStride":12},{"buffer":0,"byteOffset":13512,"byteLength":288,"target":34962,"byteStride":12},{"buffer":0,"byteOffset":13800,"byteLength":192,"target":34962,"byteStride":8},{"buffer":0,"byteOffset":13992,"byteLength":72,"target":34963},{"buffer":0,"byteOffset":14064,"byteLength":1440,"target":34962,"byteStride":12},{"buffer":0,"byteOffset":15504,"byteLength":1440,"target":34962,"byteStride":12},{"buffer":0,"byteOffset":16944,"byteLength":960,"target":34962,"byteStride":8},{"buffer":0,"byteOffset":17904,"byteLength":288,"target":34963},{"buffer":0,"byteOffset":18192,"byteLength":1440,"target":34962,"byteStride":12},{"buffer":0,"byteOffset":19632,"byteLength":1440,"target":34962,"byteStride":12},{"buffer":0,"byteOffset":21072,"byteLength":960,"target":34962,"byteStride":8},{"buffer":0,"byteOffset":22032,"byteLength":288,"target":34963},{"buffer":0,"byteOffset":22320,"byteLength":1440,"target":34962,"byteStride":12},{"buffer":0,"byteOffset":23760,"byteLength":1440,"target":34962,"byteStride":12},{"buffer":0,"byteOffset":25200,"byteLength":960,"target":34962,"byteStride":8},{"buffer":0,"byteOffset":26160,"byteLength":288,"target":34963},{"buffer":0,"byteOffset":26448,"byteLength":1440,"target":34962,"byteStride":12},{"buffer":0,"byteOffset":27888,"byteLength":1440,"target":34962,"byteStride":12},{"buffer":0,"byteOffset":29328,"byteLength":960,"target":34962,"byteStride":8},{"buffer":0,"byteOffset":30288,"byteLength":288,"target":34963}],"buffers":[{"byteLength":30576,"uri":"data:application/octet-stream;base64,"}],"accessors":[{"bufferView":0,"componentType":5126,"count":24,"max":[0.26249998807907104,0.3343749940395355,0.0625],"min":[-0.26249998807907104,0.16562500596046448,-0.0625],"type":"VEC3"},{"bufferView":1,"componentType":5126,"count":24,"max":[1,1,1],"min":[-1,-1,-1],"type":"VEC3"},{"bufferView":2,"componentType":5126,"count":24,"max":[1,1],"min":[0,0],"type":"VEC2"},{"bufferView":3,"componentType":5123,"count":18,"max":[11],"min":[0],"type":"SCALAR"},{"bufferView":4,"componentType":5123,"count":6,"max":[15],"min":[12],"type":"SCALAR"},{"bufferView":5,"componentType":5123,"count":6,"max":[19],"min":[16],"type":"SCALAR"},{"bufferView":6,"componentType":5123,"count":6,"max":[23],"min":[20],"type":"SCALAR"},{"bufferView":7,"componentType":5126,"count":24,"max":[0.265625,0.390625,0.234375],"min":[-0.265625,0.109375,-0.234375],"type":"VEC3"},{"bufferView":8,"componentType":5126,"count":24,"max":[1,1,1],"min":[-1,-1,-1],"type":"VEC3"},{"bufferView":9,"componentType":5126,"count":24,"max":[1,1],"min":[0,0],"type":"VEC2"},{"bufferView":10,"componentType":5123,"count":12,"max":[7],"min":[0],"type":"SCALAR"},{"bufferView":11,"componentType":5123,"count":6,"max":[11],"min":[8],"type":"SCALAR"},{"bufferView":12,"componentType":5123,"count":6,"max":[15],"min":[12],"type":"SCALAR"},{"bufferView":13,"componentType":5123,"count":12,"max":[23],"min":[16],"type":"SCALAR"},{"bufferView":14,"componentType":5126,"count":24,"max":[0.25,0.328125,0.08124999701976776],"min":[-0.25,0.171875,-0.08124999701976776],"type":"VEC3"},{"bufferView":15,"componentType":5126,"count":24,"max":[1,1,1],"min":[-1,-1,-1],"type":"VEC3"},{"bufferView":16,"componentType":5126,"count":24,"max":[1,1],"min":[0,0],"type":"VEC2"},{"bufferView":17,"componentType":5123,"count":36,"max":[23],"min":[0],"type":"SCALAR"},{"bufferView":18,"componentType":5126,"count":24,"max":[0.2718749940395355,0.34375,0.640625],"min":[-0.2718749940395355,0.15625,-0.640625],"type":"VEC3"},{"bufferView":19,"componentType":5126,"count":24,"max":[1,1,1],"min":[-1,-1,-1],"type":"VEC3"},{"bufferView":20,"componentType":5126,"count":24,"max":[1,1],"min":[0,0],"type":"VEC2"},{"bufferView":21,"componentType":5123,"count":12,"max":[7],"min":[0],"type":"SCALAR"},{"bufferView":22,"componentType":5123,"count":12,"max":[15],"min":[8],"type":"SCALAR"},{"bufferView":23,"componentType":5123,"count":12,"max":[23],"min":[16],"type":"SCALAR"},{"bufferView":24,"componentType":5126,"count":120,"max":[0.02500000037252903,0.2874999940395355,0.02500000037252903],"min":[-0.02500000037252903,0.21250000596046448,-0.02500000037252903],"type":"VEC3"},{"bufferView":25,"componentType":5126,"count":120,"max":[1,1,1],"min":[-1,-1,-1],"type":"VEC3"},{"bufferView":26,"componentType":5126,"count":120,"max":[0.5176381468772888,0.517638087272644],"min":[0,0],"type":"VEC2"},{"bufferView":27,"componentType":5123,"count":144,"max":[119],"min":[0],"type":"SCALAR"},{"bufferView":28,"componentType":5126,"count":36,"max":[0.04374999925494194,0,0.04374999925494194],"min":[-0.04374999925494194,0,-0.04374999925494194],"type":"VEC3"},{"bufferView":29,"componentType":5126,"count":36,"max":[0,1,0],"min":[0,1,0],"type":"VEC3"},{"bufferView":30,"componentType":5126,"count":36,"max":[0.5176381468772888,0.517638087272644],"min":[0,0],"type":"VEC2"},{"bufferView":31,"componentType":5123,"count":36,"max":[35],"min":[0],"type":"SCALAR"},{"bufferView":32,"componentType":5126,"count":36,"max":[0.04374999925494194,0,0.04374999925494194],"min":[-0.04374999925494194,0,-0.04374999925494194],"type":"VEC3"},{"bufferView":33,"componentType":5126,"count":36,"max":[0,1,0],"min":[0,1,0],"type":"VEC3"},{"bufferView":34,"componentType":5126,"count":36,"max":[0.5176381468772888,0.517638087272644],"min":[0,0],"type":"VEC2"},{"bufferView":35,"componentType":5123,"count":36,"max":[35],"min":[0],"type":"SCALAR"},{"bufferView":36,"componentType":5126,"count":36,"max":[0.04374999925494194,0,0.04374999925494194],"min":[-0.04374999925494194,0,-0.04374999925494194],"type":"VEC3"},{"bufferView":37,"componentType":5126,"count":36,"max":[0,1,0],"min":[0,1,0],"type":"VEC3"},{"bufferView":38,"componentType":5126,"count":36,"max":[0.5176381468772888,0.517638087272644],"min":[0,0],"type":"VEC2"},{"bufferView":39,"componentType":5123,"count":36,"max":[35],"min":[0],"type":"SCALAR"},{"bufferView":40,"componentType":5126,"count":36,"max":[0.04374999925494194,0,0.04374999925494194],"min":[-0.04374999925494194,0,-0.04374999925494194],"type":"VEC3"},{"bufferView":41,"componentType":5126,"count":36,"max":[0,1,0],"min":[0,1,0],"type":"VEC3"},{"bufferView":42,"componentType":5126,"count":36,"max":[0.5176381468772888,0.517638087272644],"min":[0,0],"type":"VEC2"},{"bufferView":43,"componentType":5123,"count":36,"max":[35],"min":[0],"type":"SCALAR"},{"bufferView":44,"componentType":5126,"count":24,"max":[0.13750000298023224,0.3031249940395355,0.0625],"min":[-0.13750000298023224,0.19687500596046448,-0.0625],"type":"VEC3"},{"bufferView":45,"componentType":5126,"count":24,"max":[1,1,1],"min":[-1,-1,-1],"type":"VEC3"},{"bufferView":46,"componentType":5126,"count":24,"max":[1,1],"min":[0,0],"type":"VEC2"},{"bufferView":47,"componentType":5123,"count":36,"max":[23],"min":[0],"type":"SCALAR"},{"bufferView":48,"componentType":5126,"count":24,"max":[0.13750000298023224,0.2874999940395355,0.0625],"min":[-0.13750000298023224,0.21250000596046448,-0.0625],"type":"VEC3"},{"bufferView":49,"componentType":5126,"count":24,"max":[1,1,1],"min":[-1,-1,-1],"type":"VEC3"},{"bufferView":50,"componentType":5126,"count":24,"max":[1,1],"min":[0,0],"type":"VEC2"},{"bufferView":51,"componentType":5123,"count":36,"max":[23],"min":[0],"type":"SCALAR"},{"bufferView":52,"componentType":5126,"count":120,"max":[0.109375,0.046875,0.109375],"min":[-0.109375,-0.046875,-0.109375],"type":"VEC3"},{"bufferView":53,"componentType":5126,"count":120,"max":[1,1,1],"min":[-1,-1,-1],"type":"VEC3"},{"bufferView":54,"componentType":5126,"count":120,"max":[0.5176381468772888,0.517638087272644],"min":[0,0],"type":"VEC2"},{"bufferView":55,"componentType":5123,"count":144,"max":[119],"min":[0],"type":"SCALAR"},{"bufferView":56,"componentType":5126,"count":120,"max":[0.109375,0.046875,0.109375],"min":[-0.109375,-0.046875,-0.109375],"type":"VEC3"},{"bufferView":57,"componentType":5126,"count":120,"max":[1,1,1],"min":[-1,-1,-1],"type":"VEC3"},{"bufferView":58,"componentType":5126,"count":120,"max":[0.5176381468772888,0.517638087272644],"min":[0,0],"type":"VEC2"},{"bufferView":59,"componentType":5123,"count":144,"max":[119],"min":[0],"type":"SCALAR"},{"bufferView":60,"componentType":5126,"count":120,"max":[0.109375,0.046875,0.109375],"min":[-0.109375,-0.046875,-0.109375],"type":"VEC3"},{"bufferView":61,"componentType":5126,"count":120,"max":[1,1,1],"min":[-1,-1,-1],"type":"VEC3"},{"bufferView":62,"componentType":5126,"count":120,"max":[0.5176381468772888,0.517638087272644],"min":[0,0],"type":"VEC2"},{"bufferView":63,"componentType":5123,"count":144,"max":[119],"min":[0],"type":"SCALAR"},{"bufferView":64,"componentType":5126,"count":120,"max":[0.109375,0.046875,0.109375],"min":[-0.109375,-0.046875,-0.109375],"type":"VEC3"},{"bufferView":65,"componentType":5126,"count":120,"max":[1,1,1],"min":[-1,-1,-1],"type":"VEC3"},{"bufferView":66,"componentType":5126,"count":120,"max":[0.5176381468772888,0.517638087272644],"min":[0,0],"type":"VEC2"},{"bufferView":67,"componentType":5123,"count":144,"max":[119],"min":[0],"type":"SCALAR"}],"materials":[{"pbrMetallicRoughness":{"metallicFactor":0,"roughnessFactor":1,"baseColorTexture":{"index":0}},"alphaMode":"MASK","alphaCutoff":0.05,"doubleSided":true},{"pbrMetallicRoughness":{"metallicFactor":0,"roughnessFactor":1},"alphaMode":"MASK","alphaCutoff":0.05,"doubleSided":true},{"pbrMetallicRoughness":{"metallicFactor":0,"roughnessFactor":1,"baseColorTexture":{"index":1}},"alphaMode":"MASK","alphaCutoff":0.05,"doubleSided":true},{"pbrMetallicRoughness":{"metallicFactor":0,"roughnessFactor":1,"baseColorTexture":{"index":2}},"alphaMode":"MASK","alphaCutoff":0.05,"doubleSided":true},{"pbrMetallicRoughness":{"metallicFactor":0,"roughnessFactor":1,"baseColorTexture":{"index":3}},"alphaMode":"MASK","alphaCutoff":0.05,"doubleSided":true},{"pbrMetallicRoughness":{"metallicFactor":0,"roughnessFactor":1,"baseColorTexture":{"index":4}},"alphaMode":"MASK","alphaCutoff":0.05,"doubleSided":true},{"pbrMetallicRoughness":{"metallicFactor":0,"roughnessFactor":1,"baseColorTexture":{"index":5}},"alphaMode":"MASK","alphaCutoff":0.05,"doubleSided":true},{"pbrMetallicRoughness":{"metallicFactor":0,"roughnessFactor":1,"baseColorTexture":{"index":6}},"alphaMode":"MASK","alphaCutoff":0.05,"doubleSided":true},{"pbrMetallicRoughness":{"metallicFactor":0,"roughnessFactor":1},"alphaMode":"MASK","alphaCutoff":0.05,"doubleSided":true}],"textures":[{"sampler":0,"source":0,"name":"texture"},{"sampler":1,"source":1,"name":"texture"},{"sampler":2,"source":2,"name":"texturecas"},{"sampler":3,"source":3,"name":"texture"},{"sampler":4,"source":4,"name":"sire"},{"sampler":5,"source":5,"name":"chass"},{"sampler":6,"source":6,"name":"texture"}],"samplers":[{"magFilter":9728,"minFilter":9728,"wrapS":33071,"wrapT":33071},{"magFilter":9728,"minFilter":9728,"wrapS":33071,"wrapT":33071},{"magFilter":9728,"minFilter":9728,"wrapS":33071,"wrapT":33071},{"magFilter":9728,"minFilter":9728,"wrapS":33071,"wrapT":33071},{"magFilter":9728,"minFilter":9728,"wrapS":33071,"wrapT":33071},{"magFilter":9728,"minFilter":9728,"wrapS":33071,"wrapT":33071},{"magFilter":9728,"minFilter":9728,"wrapS":33071,"wrapT":33071}],"images":[{"mimeType":"image/png","uri":"data:image/png;base64,"},{"mimeType":"image/png","uri":"data:image/png;base64,"},{"mimeType":"image/png","uri":"data:image/png;base64,"},{"mimeType":"image/png","uri":"data:image/png;base64,"},{"mimeType":"image/png","uri":"data:image/png;base64,"},{"mimeType":"image/png","uri":"data:image/png;base64,"},{"mimeType":"image/png","uri":"data:image/png;base64,"}],"meshes":[{"primitives":[{"mode":4,"attributes":{"POSITION":0,"NORMAL":1,"TEXCOORD_0":2},"indices":3,"material":0},{"mode":4,"attributes":{"POSITION":0,"NORMAL":1,"TEXCOORD_0":2},"indices":4,"material":1},{"mode":4,"attributes":{"POSITION":0,"NORMAL":1,"TEXCOORD_0":2},"indices":5,"material":0},{"mode":4,"attributes":{"POSITION":0,"NORMAL":1,"TEXCOORD_0":2},"indices":6,"material":1}]},{"primitives":[{"mode":4,"attributes":{"POSITION":7,"NORMAL":8,"TEXCOORD_0":9},"indices":10,"material":2},{"mode":4,"attributes":{"POSITION":7,"NORMAL":8,"TEXCOORD_0":9},"indices":11,"material":3},{"mode":4,"attributes":{"POSITION":7,"NORMAL":8,"TEXCOORD_0":9},"indices":12,"material":1},{"mode":4,"attributes":{"POSITION":7,"NORMAL":8,"TEXCOORD_0":9},"indices":13,"material":4}]},{"primitives":[{"mode":4,"attributes":{"POSITION":14,"NORMAL":15,"TEXCOORD_0":16},"indices":17,"material":5}]},{"primitives":[{"mode":4,"attributes":{"POSITION":18,"NORMAL":19,"TEXCOORD_0":20},"indices":21,"material":6},{"mode":4,"attributes":{"POSITION":18,"NORMAL":19,"TEXCOORD_0":20},"indices":22,"material":3},{"mode":4,"attributes":{"POSITION":18,"NORMAL":19,"TEXCOORD_0":20},"indices":23,"material":0}]},{"primitives":[{"mode":4,"attributes":{"POSITION":24,"NORMAL":25,"TEXCOORD_0":26},"indices":27,"material":7}]},{"primitives":[{"mode":4,"attributes":{"POSITION":28,"NORMAL":29,"TEXCOORD_0":30},"indices":31,"material":8}]},{"primitives":[{"mode":4,"attributes":{"POSITION":32,"NORMAL":33,"TEXCOORD_0":34},"indices":35,"material":8}]},{"primitives":[{"mode":4,"attributes":{"POSITION":36,"NORMAL":37,"TEXCOORD_0":38},"indices":39,"material":8}]},{"primitives":[{"mode":4,"attributes":{"POSITION":40,"NORMAL":41,"TEXCOORD_0":42},"indices":43,"material":8}]},{"primitives":[{"mode":4,"attributes":{"POSITION":44,"NORMAL":45,"TEXCOORD_0":46},"indices":47,"material":7}]},{"primitives":[{"mode":4,"attributes":{"POSITION":48,"NORMAL":49,"TEXCOORD_0":50},"indices":51,"material":7}]},{"primitives":[{"mode":4,"attributes":{"POSITION":52,"NORMAL":53,"TEXCOORD_0":54},"indices":55,"material":3}]},{"primitives":[{"mode":4,"attributes":{"POSITION":56,"NORMAL":57,"TEXCOORD_0":58},"indices":59,"material":3}]},{"primitives":[{"mode":4,"attributes":{"POSITION":60,"NORMAL":61,"TEXCOORD_0":62},"indices":63,"material":3}]},{"primitives":[{"mode":4,"attributes":{"POSITION":64,"NORMAL":65,"TEXCOORD_0":66},"indices":67,"material":3}]}]}